<svg width="60" height="60" viewBox="0 0 60 60" fill="none" xmlns="http://www.w3.org/2000/svg">
<g clip-path="url(#clip0_303_407)">
<circle cx="30" cy="30" r="29.5" stroke="white"/>
<g clip-path="url(#clip1_303_407)">
<path d="M21.8332 31.1667H34.8648L29.1715 36.86C28.7165 37.315 28.7165 38.0617 29.1715 38.5167C29.6265 38.9717 30.3615 38.9717 30.8165 38.5167L38.5048 30.8283C38.9598 30.3733 38.9598 29.6383 38.5048 29.1833L30.8282 21.4833C30.3732 21.0283 29.6382 21.0283 29.1832 21.4833C28.7282 21.9383 28.7282 22.6733 29.1832 23.1283L34.8648 28.8333H21.8332C21.1915 28.8333 20.6665 29.3583 20.6665 30C20.6665 30.6417 21.1915 31.1667 21.8332 31.1667Z" fill="white"/>
</g>
</g>
<defs>
<clipPath id="clip0_303_407">
<rect width="60" height="60" fill="white"/>
</clipPath>
<clipPath id="clip1_303_407">
<rect width="28" height="28" fill="white" transform="translate(16 16)"/>
</clipPath>
</defs>
</svg>
