<svg xmlns="http://www.w3.org/2000/svg" width="1200" height="1740" viewBox="0 0 1200 1740" version="1.1"><path d="M 755.450 97.407 C 749.018 100.208, 744.092 109.372, 745.374 116.154 C 747.910 129.579, 763.698 135.472, 773.670 126.716 C 780.296 120.899, 781.807 112.732, 777.697 104.960 C 773.687 97.376, 763.478 93.910, 755.450 97.407 M 460.275 97.961 C 455.633 99.078, 452.559 101.363, 449.863 105.699 L 447.500 109.500 447 166.500 C 446.435 230.866, 447.090 225.901, 438.055 234.352 C 430.129 241.765, 425.455 243.500, 413.404 243.500 C 406.316 243.500, 402.815 243.091, 401.654 242.128 C 400.169 240.896, 400 236.906, 399.996 203.128 C 399.993 167.934, 399.870 165.299, 398.094 162.387 C 394.155 155.927, 380.768 152.484, 374.799 156.396 C 373.314 157.369, 371.178 160.066, 370.054 162.389 C 366.439 169.857, 365.672 180.930, 366.270 217 C 366.576 235.425, 366.440 252.882, 365.967 255.794 C 364.700 263.593, 360.780 271.295, 354.930 277.480 C 348.879 283.878, 343.902 287.001, 335.208 289.854 C 325.884 292.914, 321.106 295.962, 318.402 300.577 C 315.542 305.458, 315.381 310.057, 317.881 315.500 C 321.002 322.296, 323.113 323.502, 331.855 323.484 C 350.799 323.443, 375.482 307.114, 389.980 285.030 C 392.880 280.614, 395.758 276.994, 396.376 276.987 C 396.994 276.980, 435.216 276.764, 481.314 276.507 C 531.828 276.226, 568.551 275.615, 573.746 274.969 C 599.680 271.747, 616.416 257.782, 624.980 232.219 C 629.431 218.935, 630.813 204.998, 628.772 193.999 C 626.687 182.759, 623.724 175.168, 618.922 168.760 C 609.161 155.733, 594.258 150.740, 576.110 154.418 C 553.438 159.011, 519.048 176.627, 490.777 198.127 C 486.529 201.357, 482.436 204, 481.681 204 C 479.762 204, 479.009 186.953, 479.004 143.398 C 479 108.645, 478.978 108.263, 476.750 104.990 C 472.528 98.786, 466.873 96.373, 460.275 97.961 M 663.290 98.965 C 661.525 100.041, 659.050 102.852, 657.790 105.211 L 655.500 109.500 655.210 166 C 655.009 205.123, 655.273 224.606, 656.067 229.348 C 657.777 239.559, 663.905 251.057, 671.934 259.115 C 683.812 271.039, 697.847 276.157, 719 276.280 C 741.589 276.412, 756.258 270.590, 767.279 257.119 C 777.288 244.887, 778.774 237.322, 779.587 194.459 L 780.204 161.938 777.629 156.719 C 773.261 147.868, 764.948 144.220, 756.497 147.448 C 753.474 148.602, 751.357 150.298, 749.790 152.817 C 747.543 156.431, 747.490 157.180, 746.938 193 C 746.402 227.902, 746.282 229.682, 744.211 233.666 C 741.372 239.126, 737.600 241.684, 729.408 243.706 C 714.150 247.471, 693.898 240.179, 689.344 229.280 C 688.278 226.730, 687.844 213.189, 687.328 166.395 L 686.670 106.761 684.126 103.738 C 678.889 97.514, 669.280 95.312, 663.290 98.965 M 303.898 100.270 C 296.643 105.116, 297.003 100.598, 297.002 186.849 C 297 272.370, 296.716 268.521, 303.373 273.270 C 307.831 276.449, 318.169 276.449, 322.627 273.270 C 329.284 268.521, 329 272.370, 328.998 186.849 C 328.997 100.598, 329.357 105.116, 322.102 100.270 C 317.358 97.100, 308.642 97.100, 303.898 100.270 M 245 101.090 C 228.886 103.164, 211.361 107.709, 198.551 113.136 C 172.250 124.279, 144.747 156.565, 146.220 174.570 C 146.994 184.038, 150.424 186.590, 169.878 192.176 C 195.812 199.622, 228.110 214.281, 237.091 222.682 C 241.545 226.848, 248 237.465, 248 240.625 C 248 241.342, 247.161 242.378, 246.137 242.927 C 245.047 243.510, 227.718 244.180, 204.387 244.540 C 157.437 245.266, 129.891 243.802, 125.247 240.335 C 120.121 236.508, 118.921 233.823, 118.014 224.151 C 117.024 213.599, 115.187 209.628, 110.016 206.863 C 105.815 204.617, 98.019 204.422, 94.069 206.464 C 92.512 207.269, 90.009 209.389, 88.507 211.174 C 85.786 214.408, 85.778 214.463, 86.236 226.959 C 86.609 237.146, 87.168 240.759, 89.209 246.209 C 96.127 264.676, 110.521 273.905, 135.660 275.987 C 150.057 277.180, 221.314 277.227, 240 276.056 C 255.778 275.067, 262.439 273.006, 269.258 267.004 C 275.555 261.461, 278.246 254.808, 278.789 243.442 C 279.337 231.973, 277.878 224.986, 272.830 214.901 C 262.786 194.833, 240.605 181.351, 188.227 163.480 C 184.522 162.215, 198.686 150.305, 211.500 143.909 C 222.846 138.246, 230.876 136.314, 256.752 133.019 C 275.490 130.632, 276.766 130.255, 280.299 126.057 C 286.823 118.304, 284.252 106.720, 274.956 101.977 C 271.808 100.371, 269.241 100.024, 261.290 100.127 C 255.905 100.197, 248.575 100.630, 245 101.090 M 957.041 148.619 C 950.432 154.180, 950.551 153.342, 950 198.340 C 949.502 238.986, 949.490 239.188, 947.289 240.968 C 942.700 244.682, 921.994 244.421, 918.173 240.602 C 916.771 239.201, 916.397 235.742, 915.862 219.215 C 915.141 196.955, 914.211 191.458, 909.481 181.500 C 898.775 158.958, 872.114 145.992, 847.656 151.433 C 826.357 156.172, 808.726 172.598, 803.531 192.542 C 801.741 199.413, 801.534 212.648, 803.097 220.201 C 804.774 228.302, 810.419 239.202, 816.248 245.592 C 832.909 263.860, 858.010 269.238, 881.250 259.518 C 884.302 258.242, 883.220 261.161, 878.038 268.185 C 870.178 278.838, 860.384 285.483, 843.711 291.475 C 833.662 295.085, 829.748 301.612, 832 311.001 C 833.764 318.352, 839.752 323, 847.460 323 C 849.291 323, 853.874 322.048, 857.645 320.885 C 877.185 314.857, 894.350 301.746, 906.481 283.583 L 911.879 275.500 929.690 275.438 C 945.871 275.381, 948.339 275.133, 956.677 272.727 L 965.853 270.078 975.677 272.679 C 983.995 274.881, 987.645 275.282, 999.500 275.298 C 1011.299 275.313, 1014.679 274.955, 1021 273.017 C 1030.390 270.139, 1033.302 270.180, 1044.500 273.349 C 1061.318 278.109, 1083.114 276.417, 1096.113 269.342 C 1105.629 264.163, 1112.694 253.934, 1115.049 241.927 C 1115.767 238.267, 1115.886 223.686, 1115.415 197.140 C 1114.749 159.606, 1114.618 157.592, 1112.584 153.745 C 1109.780 148.443, 1105.131 146, 1097.842 146 C 1093.119 146, 1091.608 146.459, 1088.941 148.703 C 1083.069 153.644, 1083.001 154.188, 1082.985 196.718 C 1082.969 238.636, 1082.887 239.327, 1077.617 241.854 C 1071.804 244.642, 1056.098 244.198, 1051.155 241.106 C 1050.083 240.435, 1049.673 231.891, 1049.129 198.883 C 1048.531 162.604, 1048.236 157.109, 1046.739 154.329 C 1042.804 147.026, 1033.458 144.135, 1025.825 147.860 C 1023.446 149.020, 1020.375 151.631, 1019 153.660 L 1016.500 157.349 1015.836 198.289 C 1015.470 220.806, 1014.795 239.583, 1014.336 240.017 C 1012.537 241.712, 1003.677 244, 998.908 244 C 992.543 244, 985.439 242.233, 983.780 240.237 C 982.805 239.064, 982.381 229.015, 982 198.098 C 981.527 159.666, 981.392 157.313, 979.477 154 C 975.158 146.527, 962.994 143.610, 957.041 148.619 M 850.463 184.531 C 825.278 193.851, 831.784 231.250, 858.590 231.250 C 878.351 231.250, 889.570 209.131, 877.947 193.085 C 871.981 184.850, 859.825 181.066, 850.463 184.531 M 581.500 187.140 C 562.396 190.801, 553.718 195.178, 517.500 219.427 C 486.369 240.270, 483.209 242.542, 484.104 243.438 C 484.371 243.705, 505.045 243.598, 530.045 243.202 L 575.500 242.480 580.923 239.490 C 587.131 236.067, 591.019 231.229, 594.056 223.145 C 598.021 212.591, 597.552 194.969, 593.147 189 C 591.051 186.159, 588.633 185.773, 581.500 187.140 M 603.200 1510.200 C 602.376 1511.024, 602 1515.987, 602 1526.039 L 602 1540.679 599.453 1541.839 C 598.052 1542.478, 595.182 1543, 593.075 1543 C 587.629 1543, 586.659 1544.702, 586.471 1554.596 C 586.268 1565.303, 586.996 1566.415, 594.128 1566.295 C 597.082 1566.245, 600.063 1566.663, 600.750 1567.224 C 601.709 1568.008, 602 1576.891, 602 1605.422 C 602 1633.005, 602.310 1642.910, 603.200 1643.800 C 605.051 1645.651, 630.379 1645.453, 631.937 1643.576 C 632.790 1642.548, 633.184 1631.882, 633.353 1605.315 C 633.481 1585.055, 633.943 1567.901, 634.380 1567.194 C 634.885 1566.378, 636.942 1565.990, 640.023 1566.130 C 647.524 1566.473, 648.118 1565.515, 647.783 1553.600 L 647.500 1543.500 641.131 1542.798 C 637.628 1542.411, 634.545 1541.878, 634.279 1541.613 C 634.014 1541.347, 633.559 1534.463, 633.269 1526.315 C 632.978 1518.167, 632.294 1510.938, 631.748 1510.250 C 630.384 1508.532, 604.912 1508.488, 603.200 1510.200 M 1024.243 1576.724 L 1024.500 1644.500 1039 1644.500 L 1053.500 1644.500 1054.191 1616 C 1054.571 1600.325, 1055.400 1585.096, 1056.033 1582.158 C 1058.624 1570.138, 1070.560 1564.895, 1080.502 1571.409 C 1086.005 1575.015, 1086.336 1576.945, 1087.286 1610.997 C 1087.816 1629.996, 1088.577 1642.991, 1089.205 1643.747 C 1090.671 1645.513, 1116.348 1645.516, 1117.743 1643.750 C 1120.601 1640.133, 1119.723 1577.877, 1116.654 1566.500 C 1114.658 1559.100, 1111.411 1553.359, 1106.377 1548.325 C 1099.590 1541.537, 1094.329 1539.510, 1083.500 1539.510 C 1073.058 1539.510, 1065.308 1541.719, 1060.215 1546.145 C 1053.862 1551.667, 1053.743 1551.335, 1054.143 1529.250 L 1054.500 1509.500 1039.243 1509.224 L 1023.986 1508.948 1024.243 1576.724 M 108.870 1540.565 C 95.227 1544.766, 82.980 1560.263, 83.010 1573.288 C 83.023 1578.792, 86.779 1586.721, 91.224 1590.623 C 95.427 1594.314, 106.521 1599.747, 121 1605.206 C 136.804 1611.164, 138.054 1613.209, 130.505 1620.758 C 126.519 1624.745, 125.643 1625.183, 122.755 1624.641 C 120.550 1624.227, 118.040 1622.403, 114.975 1618.985 L 110.450 1613.941 96.475 1614.220 C 82.962 1614.491, 82.490 1614.572, 82.189 1616.688 C 81.651 1620.462, 87.186 1630.211, 93.486 1636.588 C 101.459 1644.658, 107.748 1647.158, 121.620 1647.770 C 136.372 1648.422, 146.555 1645.139, 155.577 1636.822 C 165.568 1627.613, 168.410 1613.055, 162.482 1601.460 C 157.580 1591.871, 149.933 1587.147, 129.175 1580.884 C 121.841 1578.672, 114.411 1574.234, 113.332 1571.423 C 112.547 1569.376, 115.682 1566.144, 119.419 1565.149 C 123.352 1564.101, 127.263 1565.202, 131.111 1568.440 C 134.056 1570.918, 134.597 1571, 148.077 1571 C 164.072 1571, 163.607 1571.369, 159.946 1561.586 C 155.959 1550.930, 146 1542.628, 134.201 1540.124 C 127.040 1538.605, 114.529 1538.823, 108.870 1540.565 M 229.272 1540.437 C 214.081 1544.118, 198.879 1556.436, 192.589 1570.161 C 190.739 1574.197, 188.725 1579.885, 188.113 1582.799 C 183.338 1605.538, 195.120 1630.459, 215.777 1641.314 C 224.806 1646.058, 232.567 1648, 242.500 1648 C 258.435 1648, 271.726 1642.274, 282.636 1630.709 C 303.929 1608.137, 302.735 1574.709, 279.879 1553.549 C 273.319 1547.475, 262.523 1541.820, 254.201 1540.097 C 247.339 1538.677, 235.893 1538.833, 229.272 1540.437 M 377.500 1539.638 C 368.767 1540.970, 364.033 1543.077, 360.836 1547.054 C 356.920 1551.927, 354.500 1551.898, 354.500 1546.978 L 354.500 1543.500 340.776 1543.222 C 327.218 1542.947, 327.046 1542.971, 326.499 1545.222 C 326.195 1546.475, 326.070 1569.325, 326.223 1596 L 326.500 1644.500 341.500 1644.500 L 356.500 1644.500 357.021 1613.500 C 357.577 1580.398, 357.851 1578.542, 362.978 1573.189 C 365.978 1570.056, 369.133 1569, 375.488 1569 C 379.831 1569, 381.446 1569.504, 384.009 1571.661 C 385.749 1573.125, 387.684 1575.488, 388.309 1576.911 C 389.041 1578.580, 389.633 1591.054, 389.973 1612 L 390.500 1644.500 405.500 1644.500 L 420.500 1644.500 420.763 1610.249 C 421.045 1573.566, 420.409 1566.608, 415.928 1557.352 C 412.791 1550.872, 405.907 1544.483, 399.464 1542.072 C 393.909 1539.994, 383.055 1538.791, 377.500 1539.638 M 488.500 1540.893 C 463.126 1548.298, 449.561 1567.052, 449.725 1594.500 C 449.855 1616.169, 460.414 1635.551, 476.141 1642.989 C 484.681 1647.028, 491.664 1648.286, 503.006 1647.831 C 512.267 1647.459, 512.920 1647.278, 519.633 1643.222 C 528.219 1638.034, 531 1637.741, 531 1642.026 L 531 1645.052 546.250 1644.776 L 561.500 1644.500 561.760 1595.114 C 561.947 1559.478, 561.704 1545.348, 560.887 1544.364 C 560.035 1543.337, 556.509 1543.004, 546.628 1543.015 C 539.407 1543.024, 532.974 1543.365, 532.331 1543.774 C 531.689 1544.183, 531.014 1545.958, 530.831 1547.718 L 530.500 1550.918 524.367 1547.009 C 512.172 1539.236, 500.815 1537.300, 488.500 1540.893 M 718.718 1540.092 C 713.319 1541.363, 709.619 1543.476, 706.684 1546.964 C 703.809 1550.381, 702 1550.867, 702 1548.223 C 702 1547.245, 701.255 1545.382, 700.345 1544.082 C 698.723 1541.767, 698.454 1541.731, 686.809 1542.267 C 679.699 1542.595, 674.337 1543.306, 673.455 1544.038 C 672.187 1545.090, 672.018 1552.174, 672.241 1594.880 L 672.500 1644.500 687.500 1644.500 L 702.500 1644.500 703 1613.321 C 703.476 1583.668, 703.602 1582.004, 705.592 1579.321 C 708.838 1574.944, 713.533 1572.250, 719.261 1571.480 C 722.142 1571.093, 725.063 1570.321, 725.750 1569.766 C 726.644 1569.043, 727 1564.695, 727 1554.485 C 727 1537.806, 727.170 1538.101, 718.718 1540.092 M 782.656 1540.975 C 771.165 1544.646, 758.913 1554.978, 753.249 1565.774 C 747.751 1576.252, 746.514 1581.438, 746.514 1594 C 746.514 1602.591, 746.986 1606.891, 748.379 1611 C 754.986 1630.482, 768.433 1643.447, 785.781 1647.063 C 792.110 1648.382, 807.090 1647.787, 813.355 1645.968 C 815.475 1645.352, 819.125 1643.082, 821.467 1640.924 C 826.536 1636.251, 828 1636.017, 828 1639.878 C 828 1644.735, 829.937 1645.429, 843.500 1645.429 C 851.720 1645.429, 856.267 1645.024, 857.255 1644.204 C 858.506 1643.165, 858.805 1635.693, 859.219 1595.239 C 859.487 1568.983, 859.334 1546.487, 858.878 1545.250 C 858.074 1543.068, 857.641 1543, 844.459 1543 C 830.271 1543, 827 1543.756, 827 1547.035 C 827 1549.552, 826.945 1549.543, 820.735 1546.085 C 808.419 1539.226, 794.130 1537.309, 782.656 1540.975 M 929 1540.516 C 920.975 1542.484, 916.275 1544.660, 909.238 1549.665 C 892.275 1561.728, 883.331 1586.293, 888.530 1606.540 C 891.198 1616.928, 894.786 1622.954, 903.417 1631.543 C 922.918 1650.948, 948.828 1654.228, 970.871 1640.083 C 981.495 1633.265, 995.667 1614.713, 994.817 1608.734 C 994.532 1606.722, 993.755 1606.432, 987 1605.819 C 982.875 1605.444, 976.246 1605.544, 972.269 1606.042 C 965.756 1606.856, 964.469 1607.409, 959.310 1611.611 C 952.399 1617.241, 948.451 1619.003, 942.782 1618.990 C 937.622 1618.978, 929.527 1615.348, 925.804 1611.376 C 918.893 1604.005, 916.573 1590.636, 920.785 1582.460 C 925.256 1573.780, 933.344 1568.644, 942.500 1568.671 C 950.326 1568.694, 954.938 1570.774, 960.863 1576.954 L 965.701 1582 980.243 1582 C 992.779 1582, 994.873 1581.774, 995.413 1580.366 C 995.775 1579.422, 994.454 1575.510, 992.288 1571.116 C 987.844 1562.095, 976.437 1549.996, 968.325 1545.698 C 957.018 1539.708, 940.933 1537.589, 929 1540.516 M 233.500 1570.389 C 224.509 1574.317, 219.012 1583.287, 219.032 1594 C 219.047 1602.287, 221.307 1607.340, 227.394 1612.698 C 237.392 1621.499, 251.062 1620.527, 259.970 1610.382 C 264.514 1605.206, 266.002 1601.104, 265.990 1593.782 C 265.974 1583.161, 260.305 1574.129, 251.282 1570.348 C 247.221 1568.647, 237.437 1568.669, 233.500 1570.389 M 494.168 1571.603 C 485.712 1575.817, 480.761 1583.859, 480.719 1593.446 C 480.675 1603.496, 485.522 1611.533, 494.500 1616.299 C 499.776 1619.099, 510.879 1619.307, 516.108 1616.704 C 527.369 1611.096, 533.056 1598.542, 529.633 1586.847 C 525.244 1571.848, 508.296 1564.563, 494.168 1571.603 M 791.221 1571.174 C 779.436 1576.889, 773.835 1592.833, 779.595 1604.267 C 781.895 1608.832, 786.819 1613.812, 791.500 1616.308 C 797.114 1619.301, 807.896 1619.287, 813.595 1616.279 C 818.442 1613.720, 823.665 1608.047, 825.736 1603.089 C 826.553 1601.133, 827.206 1596.723, 827.186 1593.290 C 827.126 1582.974, 821.428 1574.584, 811.728 1570.531 C 806.432 1568.318, 796.467 1568.631, 791.221 1571.174" stroke="none" fill="#040404" fill-rule="evenodd"/><path d="M 118.063 387.554 C 100.124 391.446, 86.423 404.867, 81.878 423 C 80.729 427.586, 80.500 463.247, 80.500 637.500 L 80.500 846.500 82.787 852.829 C 88.213 867.842, 99.140 878.874, 113.426 883.764 C 118.198 885.397, 140.849 885.530, 493.500 886 C 842.778 886.466, 868.756 886.616, 872.228 888.190 C 878.060 890.833, 880.166 895.096, 879.795 903.504 C 879.433 911.709, 877.193 915.683, 871.270 918.627 C 867.609 920.446, 856.077 920.515, 474 921 L 80.500 921.500 80.500 1038 L 80.500 1154.500 286.400 1154.752 C 436.576 1154.936, 492.666 1155.308, 493.650 1156.125 C 495.629 1157.767, 495.569 1183.840, 493.581 1186.559 C 492.186 1188.467, 488.626 1188.509, 286.331 1189 L 80.500 1189.500 80.246 1305.624 C 80.034 1402.449, 80.217 1421.935, 81.349 1422.875 C 82.354 1423.708, 217.744 1423.937, 601.104 1423.751 L 1119.500 1423.500 1119.754 1305.750 L 1120.008 1188 913.597 1188 L 707.187 1188 706.518 1178.750 C 706.150 1173.662, 705.995 1166.350, 706.174 1162.500 L 706.500 1155.500 893.500 1155 L 1080.500 1154.500 1086.887 1152.193 C 1102.914 1146.405, 1112.927 1135.859, 1117.771 1119.664 C 1119.128 1115.129, 1119.433 1089.701, 1120.277 910.777 C 1121.138 728.459, 1121.076 706.087, 1119.689 697.859 C 1116.777 680.589, 1108.320 668.382, 1094.631 661.691 C 1082.228 655.628, 1107.446 656, 709.049 656 C 472.643 656, 342.437 655.652, 339.056 655.011 C 332.408 653.750, 328.258 650.780, 325.905 645.599 C 321.800 636.559, 324.563 628.455, 333.215 624.162 L 337.927 621.823 728.713 621.162 L 1119.500 620.500 1119.500 503.500 L 1119.500 386.500 622 386.329 C 199.473 386.184, 123.530 386.368, 118.063 387.554" stroke="none" fill="#ec8c34" fill-rule="evenodd"/></svg>